<svg xmlns="http://www.w3.org/2000/svg" version="1.1" xmlns:xlink="http://www.w3.org/1999/xlink" width="512" height="512" x="0" y="0" viewBox="0 0 1.707 1.707" style="enable-background:new 0 0 512 512" xml:space="preserve" fill-rule="evenodd" class=""><g><path d="M1.407 1.255H.177a.04.04 0 0 1-.04-.04v-.08L.01.976A.04.04 0 0 1 .001.948V.877a.04.04 0 0 1 .04-.04h1.625a.04.04 0 0 1 .04.046.365.365 0 0 1-.037.111.04.04 0 1 1-.071-.037.269.269 0 0 0 .017-.04H.081v.018l.128.162a.04.04 0 0 1 .009.025v.053h1.149v-.01c0-.027 0-.059.047-.068.006-.002.015-.003.028-.008a.326.326 0 0 0 .07-.036.04.04 0 0 1 .044.066.405.405 0 0 1-.11.052v.044a.04.04 0 0 1-.04.04z" fill="#eef707" opacity="1" data-original="#000000" class=""></path><path d="M.38 1.153a.107.107 0 1 1 0-.214.107.107 0 0 1 0 .214zm0-.134a.027.027 0 1 0 0 .054.027.027 0 0 0 0-.054zM.655 1.153a.107.107 0 1 1 0-.214.107.107 0 0 1 0 .214zm0-.134a.027.027 0 1 0 0 .054.027.027 0 0 0 0-.054zM.93 1.153a.107.107 0 1 1 0-.214.107.107 0 0 1 0 .214zm0-.134a.027.027 0 1 0 0 .054.027.027 0 0 0 0-.054zM1.204 1.153a.107.107 0 1 1 0-.214.107.107 0 0 1 0 .214zm0-.134a.027.027 0 1 0 0 .054.027.027 0 0 0 0-.054zM1.464.917H.456A.04.04 0 0 1 .428.906L.218.703A.04.04 0 0 1 .206.685L.154.498A.04.04 0 0 1 .192.447L.308.445a.04.04 0 1 1 .002.08L.245.526l.036.127.19.184h.879L.942.514l-.5.008a.04.04 0 0 1-.04-.039.04.04 0 0 1 .04-.04l.513-.01c.01 0 .018.003.026.01l.508.402a.04.04 0 0 1-.025.072z" fill="#eef707" opacity="1" data-original="#000000" class=""></path><path d="M1.16.676H.742a.04.04 0 1 1 0-.08h.418a.04.04 0 1 1 0 .08zM.19.917a.04.04 0 0 1-.039-.05L.207.663a.04.04 0 1 1 .078.02L.229.887a.04.04 0 0 1-.039.03zM.559.52a.04.04 0 0 1-.04-.04.38.38 0 0 0-.01-.1C.505.37.5.365.496.36.478.34.48.323.485.312.49.3.5.286.529.286h.223c.016 0 .03.01.036.024l.068.15a.04.04 0 0 1-.035.056L.56.52H.559zm.03-.153a.362.362 0 0 1 .01.073l.16-.003-.033-.07H.588zM1.56 1.42c-.033 0-.06-.017-.085-.032-.016-.01-.034-.02-.044-.02-.01 0-.027.01-.043.02-.024.015-.052.032-.085.032s-.06-.017-.085-.032c-.016-.01-.034-.02-.044-.02-.01 0-.027.01-.043.02a.165.165 0 0 1-.085.032c-.033 0-.06-.017-.085-.032-.016-.01-.033-.02-.043-.02-.01 0-.028.01-.044.02a.165.165 0 0 1-.085.032c-.033 0-.06-.017-.085-.032-.016-.01-.033-.02-.043-.02-.01 0-.028.01-.044.02a.165.165 0 0 1-.085.032c-.033 0-.06-.017-.085-.032-.016-.01-.033-.02-.043-.02s-.028.01-.043.02a.165.165 0 0 1-.086.032c-.032 0-.06-.017-.085-.032-.015-.01-.033-.02-.043-.02a.04.04 0 1 1 0-.08c.033 0 .06.017.085.032.016.01.033.02.043.02.01 0 .028-.01.044-.02a.165.165 0 0 1 .085-.033c.033 0 .06.018.085.033.016.01.033.02.043.02.01 0 .028-.01.043-.02a.165.165 0 0 1 .086-.033c.032 0 .06.018.085.033.015.01.033.02.043.02.01 0 .028-.01.043-.02a.165.165 0 0 1 .086-.033c.032 0 .06.018.085.033.015.01.033.02.043.02.01 0 .028-.01.043-.02.025-.015.053-.033.085-.033s.061.018.086.033c.015.01.033.02.043.02.01 0 .028-.01.043-.02a.165.165 0 0 1 .085-.033c.033 0 .061.018.086.033.015.01.033.02.043.02a.04.04 0 1 1 0 .08z" fill="#eef707" opacity="1" data-original="#000000" class=""></path></g></svg>