<svg xmlns="http://www.w3.org/2000/svg" version="1.1" xmlns:xlink="http://www.w3.org/1999/xlink" width="512" height="512" x="0" y="0" viewBox="0 0 64 64" style="enable-background:new 0 0 512 512" xml:space="preserve" class=""><g><path d="M48.074 31H35.926a2.008 2.008 0 0 0-1.994 1.847L33 45c0 1.103.897 2 2 2h14c1.103 0 2-.897 1.997-2.077l-.929-12.077A2.01 2.01 0 0 0 48.074 31zM34.997 45.077 35.926 33H41v12.044zM43 45.033V33h5.074l.928 12z" fill="#eaf307" opacity="1" data-original="#000000"></path><path d="M58 39h-3.08l-.542-6.498c-.211-2.531-2.027-4.589-4.378-5.255V23h-2v4h-5.634L17 5.536V3.5C17 2.122 15.878 1 14.5 1c-.537 0-1.069.177-1.5.5l-2.801 2.1A3.016 3.016 0 0 0 9 6v.586l-5.121 5.121A2.978 2.978 0 0 0 3 13.829v2.757c0 1.189.866 2.174 2 2.372V29c-1.103 0-2 .897-2 2v2c0 .45.155.861.407 1.196A8.71 8.71 0 0 0 1 40.222C1 45.062 4.938 49 9.778 49h3.744l-.446 1.114A2.982 2.982 0 0 1 10.292 52c-1.792 0-3.41.992-4.223 2.589l-.655 1.287a.905.905 0 0 1-.528.452l-.436.144a5.486 5.486 0 0 0-3.173 2.739A2.62 2.62 0 0 0 3.618 63H52c3.86 0 7-3.14 7-7 0-1.958-.81-3.728-2.11-5H60c1.654 0 3-1.346 3-3v-4c0-2.757-2.243-5-5-5zm2.816 4H59v-1.816A2.997 2.997 0 0 1 60.816 43zM55 41h2v2h-2zM39.27 27h-3.492a5.986 5.986 0 0 0-5.148 2.917L17 12.653V8.156zM27.439 50.699l-3.286-1.315a2.009 2.009 0 0 1-.858-.657L21.7 46.6a4.019 4.019 0 0 0-3.2-1.6H17v-1.618l-2-1V35c1.103 0 2-.897 2-2V15.88l12.839 16.263a6.251 6.251 0 0 0-.055.586l-.755 16.934a6.97 6.97 0 0 0-1.59 1.036zM11 35h2v8.618l2 1V47h-4zM5 13.829c0-.267.104-.519.293-.708L9 9.414v4.172l-3.293 3.293c-.238.238-.707.045-.707-.293zm2 4.564c.039-.035.084-.062.121-.1L9 16.414V29H7zM5 31h6V6c0-.313.149-.612.4-.8l2.799-2.099c.311-.233.801.015.801.399l.001 29.5H5zm-2 9.222c0-1.811.705-3.513 1.985-4.793L5.414 35H9v11.952c-3.372-.388-6-3.256-6-6.73zM3.618 61a.618.618 0 0 1-.553-.894 3.47 3.47 0 0 1 2.009-1.734l.437-.144a2.892 2.892 0 0 0 1.686-1.445l.655-1.287A2.724 2.724 0 0 1 10.292 54a4.977 4.977 0 0 0 4.643-3.143l.8-2.001A2 2 0 0 0 17 47h1.5a2.01 2.01 0 0 1 1.6.8l1.595 2.127a3.992 3.992 0 0 0 1.714 1.313l2.657 1.063A6.958 6.958 0 0 0 25 56c0 1.958.81 3.728 2.11 5zM41 57v4h-2v-4zm4 0v4h-2v-4zm2 4v-4h2v4zm4 0v-4h2v3.899A4.995 4.995 0 0 1 52 61zm6-5c0 1.627-.793 3.061-2 3.974V57c0-1.103-.897-2-2-2H34.816A2.996 2.996 0 0 0 32 53c-1.654 0-3 1.346-3 3s1.346 3 3 3a2.996 2.996 0 0 0 2.816-2H37v4h-5c-2.757 0-5-2.243-5-5s2.243-5 5-5h20c2.757 0 5 2.243 5 5zm-24 0c0 .551-.449 1-1 1s-1-.449-1-1 .449-1 1-1 1 .449 1 1zm27-7H32c-.319 0-.634.021-.942.063l.724-16.245A3.993 3.993 0 0 1 35.778 29H48.4a4.024 4.024 0 0 1 3.986 3.668L53 40.04V43c0 1.103.897 2 2 2h6v3c0 .551-.449 1-1 1z" fill="#eaf307" opacity="1" data-original="#000000"></path><path d="M19 51h2v2h-2zM21 57h2v2h-2zM15 55h2v2h-2zM11 57h2v2h-2z" fill="#eaf307" opacity="1" data-original="#000000"></path></g></svg>