<svg xmlns="http://www.w3.org/2000/svg" version="1.1" xmlns:xlink="http://www.w3.org/1999/xlink" width="512" height="512" x="0" y="0" viewBox="0 0 512 512" style="enable-background:new 0 0 512 512" xml:space="preserve" class=""><g><path d="m357.387 96.418-35.703-52.074c-1.868-2.719-4.954-4.344-8.25-4.344s-6.383 1.625-8.246 4.344L284.93 73.887 237.25 4.344C235.383 1.625 232.297 0 229 0s-6.383 1.625-8.246 4.344l-81.188 118.41c-29.52 43.05-24.156 101.09 12.758 138 21.137 21.14 48.906 31.71 76.676 31.71s55.54-10.57 76.68-31.71c22.918-22.914 34.238-54.258 31.332-86.418a52.965 52.965 0 0 0 14.105-10.098c18.14-18.14 20.778-46.664 6.27-67.82zm-65.848 150.195c-34.484 34.48-90.594 34.485-125.074 0-30.106-30.105-34.48-77.437-10.406-112.55L229 27.683l43.805 63.883-3.325 4.852c-14.507 21.156-11.87 49.68 6.27 67.82 10.39 10.387 24.035 15.582 37.684 15.582 1.3 0 2.597-.062 3.898-.156 1.27 24.984-7.945 49.102-25.793 66.95zm45.438-96.515c-12.98 12.98-34.106 12.98-47.086 0-11.332-11.332-12.977-29.153-3.914-42.371l27.457-40.047 27.457 40.047c9.066 13.218 7.418 31.039-3.914 42.37zm0 0" fill="#e6e309" opacity="1" data-original="#000000" class=""></path><path d="M275.379 512h-92.754c-5.523 0-10-4.477-10-10v-29.516a196.74 196.74 0 0 1-37.73-15.648l-20.887 20.887c-1.875 1.875-4.418 2.925-7.07 2.925s-5.196-1.05-7.07-2.925l-65.587-65.59a10 10 0 0 1 0-14.14l20.887-20.888a196.403 196.403 0 0 1-15.652-37.73H10c-5.523 0-10-4.477-10-10v-73.387c0-5.52 4.477-10 10-10h105.156a10 10 0 0 1 9.73 12.305 107.312 107.312 0 0 0-2.87 24.707c0 44.004 27.593 84.156 68.664 99.922 5.156 1.976 7.734 7.762 5.754 12.918-1.98 5.156-7.762 7.73-12.918 5.75-23.723-9.102-43.993-24.961-58.618-45.856-14.968-21.39-22.882-46.539-22.882-72.734 0-5.7.382-11.387 1.136-17.012H20v53.39h27.133a9.995 9.995 0 0 1 9.687 7.536A176.588 176.588 0 0 0 76.22 373.68a10.004 10.004 0 0 1-1.524 12.183l-19.203 19.2 51.445 51.445 19.204-19.203a10.01 10.01 0 0 1 12.183-1.524 176.459 176.459 0 0 0 46.766 19.399 9.995 9.995 0 0 1 7.535 9.687V492h72.754v-27.133a10 10 0 0 1 7.535-9.687 176.56 176.56 0 0 0 46.77-19.399 10.004 10.004 0 0 1 12.183 1.524l19.203 19.203 51.442-51.445-19.2-19.2a10 10 0 0 1-1.523-12.183 176.549 176.549 0 0 0 19.395-46.77 10 10 0 0 1 9.691-7.535h27.133v-53.387h-83.156A128.113 128.113 0 0 1 355.988 283c0 27.66-8.742 53.957-25.277 76.04-15.98 21.347-38.742 37.425-64.094 45.276-5.273 1.637-10.875-1.316-12.508-6.593-1.632-5.274 1.317-10.875 6.594-12.512 45.027-13.945 75.281-55.023 75.281-102.211 0-8.348-.964-16.66-2.867-24.707a9.986 9.986 0 0 1 1.887-8.508 10.007 10.007 0 0 1 7.844-3.797h105.156c5.523 0 10 4.48 10 10v73.387c0 5.523-4.477 10-10 10h-29.52a196.243 196.243 0 0 1-15.648 37.73l20.887 20.887c3.906 3.906 3.906 10.238 0 14.145l-65.586 65.586a10 10 0 0 1-14.14 0l-20.888-20.887a196.491 196.491 0 0 1-37.73 15.648V502c0 5.523-4.477 10-10 10zm0 0" fill="#e6e309" opacity="1" data-original="#000000" class=""></path><path d="M229 409.984c-5.52 0-9.996-4.48-9.996-10 0-5.523 4.476-10 9.996-10h.504c5.492 0 9.965 4.438 9.996 9.938.031 5.523-4.418 10.027-9.938 10.058zM229 252.488c-5.52 0-10.02-4.476-10.02-10 0-5.52 4.458-9.996 9.98-9.996h.04c5.523 0 10 4.477 10 9.996 0 5.524-4.477 10-10 10zM191.367 238.797a9.964 9.964 0 0 1-6.441-2.356 68.193 68.193 0 0 1-4.32-3.972c-23.297-23.293-26.684-59.922-8.051-87.098 3.12-4.555 9.347-5.715 13.902-2.59 4.555 3.121 5.715 9.348 2.59 13.899-13.188 19.234-10.79 45.16 5.7 61.648.98.98 2.01 1.93 3.07 2.82 4.222 3.559 4.761 9.868 1.203 14.09a9.982 9.982 0 0 1-7.653 3.559zm0 0" fill="#e6e309" opacity="1" data-original="#000000" class=""></path></g></svg>