<svg xmlns="http://www.w3.org/2000/svg" version="1.1" xmlns:xlink="http://www.w3.org/1999/xlink" width="512" height="512" x="0" y="0" viewBox="0 0 682.667 682.667" style="enable-background:new 0 0 512 512" xml:space="preserve" class=""><g><defs><clipPath id="a" clipPathUnits="userSpaceOnUse"><path d="M0 512h512V0H0Z" fill="#000000" opacity="1" data-original="#000000"></path></clipPath></defs><g clip-path="url(#a)" transform="matrix(1.33333 0 0 -1.33333 0 682.667)"><path d="m0 0-46.83 13.22c-3.55 1-7.32-.571-9.101-3.8L-79.38-33.221c-.94-1.71-3.43-1.57-4.19.221l-21.07 50.35-50.73 121.219 37.57 89.761 31.93-13.36 31.97-76.39L2.78 3.14C3.53 1.34 1.87-.53 0 0" style="fill-opacity:1;fill-rule:nonzero;stroke:none" transform="translate(383.2 47.9)" fill="#ff4a4a" data-original="#ff4a4a"></path><path d="m0 0-50.739-121.23L-101.47-.011l37.571 89.761 31.929-13.36Z" style="fill-opacity:1;fill-rule:nonzero;stroke:none" transform="translate(329.3 186.48)" fill="#ef3535" data-original="#ef3535"></path><path d="m0 0-23.454 42.637a7.921 7.921 0 0 1-9.092 3.805L-79.377 33.22c-1.875-.53-3.531 1.341-2.779 3.137l98.708 235.861 86.342-36.135L4.187.224C3.435-1.574.938-1.707 0 0" style="fill-opacity:1;fill-rule:nonzero;stroke:none" transform="translate(208.18 14.68)" fill="#ff4a4a" data-original="#ff4a4a"></path><path d="m0 0 28.811-23.749a33.111 33.111 0 0 1 17.888-7.41l37.165-3.578c15.78-1.52 28.269-14.009 29.788-29.788l3.579-37.165a33.107 33.107 0 0 1 7.411-17.89l23.749-28.81c10.083-12.232 10.083-29.894 0-42.127l-23.749-28.81a33.107 33.107 0 0 1-7.411-17.889l-3.579-37.165c-1.519-15.779-14.008-28.268-29.788-29.788l-37.165-3.579a33.111 33.111 0 0 1-17.888-7.41L0-338.907c-12.232-10.083-29.895-10.083-42.127 0l-28.811 23.749a33.111 33.111 0 0 1-17.888 7.41l-37.165 3.579c-15.78 1.52-28.269 14.009-29.788 29.788l-3.579 37.165a33.107 33.107 0 0 1-7.411 17.889l-23.749 28.81c-10.083 12.233-10.083 29.895 0 42.127l23.749 28.81a33.107 33.107 0 0 1 7.411 17.89l3.579 37.165c1.519 15.779 14.008 28.268 29.788 29.788l37.165 3.578a33.111 33.111 0 0 1 17.888 7.41L-42.127 0C-29.895 10.083-12.232 10.083 0 0" style="fill-opacity:1;fill-rule:nonzero;stroke:none" transform="translate(277.063 496.725)" fill="#ffd782" data-original="#ffd782" class=""></path><path d="M0 0c0-60.567-49.1-109.667-109.667-109.667S-219.334-60.567-219.334 0s49.1 109.666 109.667 109.666S0 60.567 0 0" style="fill-opacity:1;fill-rule:nonzero;stroke:none" transform="translate(365.667 327.272)" fill="#ff8000" data-original="#ff8000" class=""></path><path d="M0 0c-9.511 0-18.738-1.212-27.537-3.487 47.238-12.216 82.129-55.122 82.129-106.179s-34.891-93.963-82.129-106.18A109.876 109.876 0 0 1 0-219.333c60.567 0 109.666 49.1 109.666 109.667C109.666-49.1 60.567 0 0 0" style="fill-opacity:1;fill-rule:nonzero;stroke:none" transform="translate(256 436.938)" fill="#ff5f06" data-original="#ff5f06" class=""></path><path d="M0 0c-4.094 0-8.02 1.626-10.914 4.521l-32.759 32.758c-6.027 6.029-6.027 15.801 0 21.829 6.028 6.028 15.801 6.028 21.829 0L0 37.264l60.597 60.597c6.028 6.028 15.8 6.028 21.829 0 6.027-6.028 6.027-15.8 0-21.829L10.915 4.521A15.434 15.434 0 0 0 0 0" style="fill-opacity:1;fill-rule:nonzero;stroke:none" transform="translate(230.488 271.549)" fill="#ffffff" data-original="#ffffff"></path><path d="m0 0 57.9-138.36c.75-1.8-.91-3.67-2.78-3.14L8.29-128.28c-3.55 1-7.32-.571-9.101-3.8l-23.449-42.641c-.94-1.71-3.43-1.569-4.19.221l-28.368 67.79" style="stroke-width:15;stroke-linecap:round;stroke-linejoin:round;stroke-miterlimit:10;stroke-dasharray:none;stroke-opacity:1" transform="translate(328.08 189.4)" fill="none" stroke="#000000" stroke-width="15" stroke-linecap="round" stroke-linejoin="round" stroke-miterlimit="10" stroke-dasharray="none" stroke-opacity="" data-original="#000000" class=""></path><path d="m0 0-57.9-138.36c-.75-1.8.91-3.67 2.78-3.14l46.83 13.22c3.55 1 7.32-.571 9.101-3.8l23.449-42.641c.94-1.71 3.43-1.569 4.19.221L72.08-70.24l14.39 34.389" style="stroke-width:15;stroke-linecap:round;stroke-linejoin:round;stroke-miterlimit:10;stroke-dasharray:none;stroke-opacity:1" transform="translate(183.92 189.4)" fill="none" stroke="#000000" stroke-width="15" stroke-linecap="round" stroke-linejoin="round" stroke-miterlimit="10" stroke-dasharray="none" stroke-opacity="" data-original="#000000" class=""></path><path d="m0 0 28.811-23.749a33.111 33.111 0 0 1 17.888-7.41l37.165-3.578c15.78-1.52 28.269-14.009 29.788-29.788l3.579-37.165a33.107 33.107 0 0 1 7.411-17.89l23.749-28.81c10.083-12.232 10.083-29.894 0-42.127l-23.749-28.81a33.107 33.107 0 0 1-7.411-17.889l-3.579-37.165c-1.519-15.779-14.008-28.268-29.788-29.788l-37.165-3.579a33.111 33.111 0 0 1-17.888-7.41L0-338.907c-12.232-10.083-29.895-10.083-42.127 0l-28.811 23.749a33.111 33.111 0 0 1-17.888 7.41l-37.165 3.579c-15.78 1.52-28.269 14.009-29.788 29.788l-3.579 37.165a33.107 33.107 0 0 1-7.411 17.889l-23.749 28.81c-10.083 12.233-10.083 29.895 0 42.127l23.749 28.81a33.107 33.107 0 0 1 7.411 17.89l3.579 37.165c1.519 15.779 14.008 28.268 29.788 29.788l37.165 3.578a33.111 33.111 0 0 1 17.888 7.41L-42.127 0C-29.895 10.083-12.232 10.083 0 0Z" style="stroke-width:15;stroke-linecap:round;stroke-linejoin:round;stroke-miterlimit:10;stroke-dasharray:none;stroke-opacity:1" transform="translate(277.063 496.725)" fill="none" stroke="#000000" stroke-width="15" stroke-linecap="round" stroke-linejoin="round" stroke-miterlimit="10" stroke-dasharray="none" stroke-opacity="" data-original="#000000" class=""></path><path d="M0 0c4.596.587 9.28.89 14.035.89 60.568 0 109.667-49.099 109.667-109.666 0-60.568-49.099-109.667-109.667-109.667-60.567 0-109.667 49.099-109.667 109.667 0 44.577 26.598 82.943 64.789 100.092" style="stroke-width:15;stroke-linecap:round;stroke-linejoin:round;stroke-miterlimit:10;stroke-dasharray:none;stroke-opacity:1" transform="translate(241.965 436.048)" fill="none" stroke="#000000" stroke-width="15" stroke-linecap="round" stroke-linejoin="round" stroke-miterlimit="10" stroke-dasharray="none" stroke-opacity="" data-original="#000000" class=""></path><path d="M0 0c-4.094 0-8.02 1.626-10.914 4.521l-32.759 32.758c-6.027 6.029-6.027 15.801 0 21.829 6.028 6.028 15.801 6.028 21.829 0L0 37.264l60.597 60.597c6.028 6.028 15.8 6.028 21.829 0 6.027-6.028 6.027-15.8 0-21.829L10.915 4.521A15.434 15.434 0 0 0 0 0Z" style="stroke-width:15;stroke-linecap:round;stroke-linejoin:round;stroke-miterlimit:10;stroke-dasharray:none;stroke-opacity:1" transform="translate(230.488 271.549)" fill="none" stroke="#000000" stroke-width="15" stroke-linecap="round" stroke-linejoin="round" stroke-miterlimit="10" stroke-dasharray="none" stroke-opacity="" data-original="#000000" class=""></path></g></g></svg>