<svg xmlns="http://www.w3.org/2000/svg" version="1.1" xmlns:xlink="http://www.w3.org/1999/xlink" width="512" height="512" x="0" y="0" viewBox="0 0 512 511" style="enable-background:new 0 0 512 512" xml:space="preserve" class=""><g><path fill="#d4db18" d="M467.637 308.633 367.5 375.648l-29.844-1.675-1.168-11.746c-1.738-17.485-15.199-31.516-32.597-33.98l-105.871-9.278c-10.375-1.469-32.2-13.004-49.31-22.82-16.218-9.301-34.546-14.313-53.245-14.47l-53.828-.445v131.59L194 470.524c5.758 1.624 11.805 2.113 17.715 1.175.035-.004.07-.008.105-.015l153.395-22.11a67.893 67.893 0 0 0 32.2-14.43l99.144-89.164c8.894-7.902 10.546-21.18 3.851-31.015-7.324-10.766-21.969-13.594-32.773-6.332zm0 0" opacity="1" data-original="#fae0c1"></path><path fill="#efd0af" d="M500.41 314.965a23.61 23.61 0 0 0-2.164-2.727l-100.832 74.047a67.87 67.87 0 0 1-32.2 14.426L211.82 422.824a.981.981 0 0 0-.105.016c-5.91.933-11.957.445-17.715-1.18L41.637 363.965v48.86L194 470.522c5.758 1.625 11.805 2.114 17.715 1.176a.855.855 0 0 0 .105-.015l153.395-22.11a67.893 67.893 0 0 0 32.2-14.43l99.144-89.164c8.894-7.902 10.543-21.18 3.851-31.015zm0 0" opacity="1" data-original="#efd0af"></path><path fill="#f43b45" d="M81.137 458.242H17.844c-5.719 0-10.356-4.637-10.356-10.355V254.64c0-5.72 4.637-10.356 10.356-10.356h63.293c5.718 0 10.355 4.637 10.355 10.356v193.246c0 5.718-4.637 10.355-10.355 10.355zm0 0" opacity="1" data-original="#f43b45"></path><path fill="#cf3735" d="M81.137 244.285H42.719v213.957h38.418c5.718 0 10.355-4.637 10.355-10.355V254.64c0-5.72-4.637-10.356-10.355-10.356zm0 0" opacity="1" data-original="#cf3735"></path><path fill="#75cff2" d="M384.422 75.75c-25.012-10.383-42.485-33.895-44.875-61.281-.328-3.746-3.512-6.598-7.27-6.574l-76.054.445-1.543.008-76.055.445c-3.805.023-6.91 2.98-7.203 6.77-2.11 27.394-19.32 51.078-44.211 61.726-4.219 1.8-6.75 6.152-6.273 10.715 3.492 33.383 23.824 147.062 134.667 198.191.461.215.97.325 1.477.32a3.5 3.5 0 0 0 1.473-.335c110.23-52.422 129.23-166.325 132.332-199.754.43-4.598-2.203-8.906-6.465-10.676zm0 0" opacity="1" data-original="#75cff2"></path><path fill="#53b4e4" d="M384.422 75.75c-25.012-10.383-42.485-33.895-44.875-61.281-.328-3.746-3.512-6.598-7.27-6.574l-41.867.246a73.26 73.26 0 0 0 45.098 67.586c4.273 1.78 6.945 6.085 6.52 10.699-2.876 30.992-19.43 131.156-109.684 187.367a228.14 228.14 0 0 0 23.261 12.406c.465.211.97.32 1.477.317.508 0 1.012-.118 1.473-.336 110.23-52.422 129.234-166.325 132.336-199.754.425-4.598-2.207-8.906-6.47-10.676zm0 0" opacity="1" data-original="#53b4e4"></path><path fill="#e1e0de" d="M254.945 254.547c-75.847-41.164-97.843-117.52-104.148-154.984a4.01 4.01 0 0 1 1.824-4.079 98.03 98.03 0 0 0 42.445-55.746 4.028 4.028 0 0 1 3.848-2.883l113.395-.664a4.022 4.022 0 0 1 3.878 2.836 98.044 98.044 0 0 0 43.098 55.246 4.004 4.004 0 0 1 1.875 4.055c-5.863 37.54-26.953 114.149-102.32 156.195a4.056 4.056 0 0 1-3.895.024zm0 0" opacity="1" data-original="#e1e0de" class=""></path><path fill="#d6d6d6" d="M359.285 94.273a98.06 98.06 0 0 1-43.098-55.246 4.022 4.022 0 0 0-3.878-2.836l-45.723.266a98.035 98.035 0 0 0 43.844 57.82 3.99 3.99 0 0 1 1.87 4.043c-5.241 33.551-22.652 98.325-80.116 141.73a191.827 191.827 0 0 0 22.761 14.497 4.056 4.056 0 0 0 3.895-.024c75.363-42.046 96.457-118.656 102.32-156.199a4.001 4.001 0 0 0-1.875-4.05zm0 0" opacity="1" data-original="#d6d6d6" class=""></path><path fill="#ededed" d="M67.148 410.703c0 10.516-8.523 19.035-19.035 19.035-10.515 0-19.039-8.52-19.039-19.035 0-10.512 8.524-19.035 19.04-19.035 10.511 0 19.034 8.523 19.034 19.035zm0 0" opacity="1" data-original="#ededed"></path><path d="M247.36 178.723c3.335 3.168 8.882 2.527 11.417-1.297l49.918-75.336a7.503 7.503 0 0 0-2.11-10.399c-3.448-2.285-8.105-1.34-10.394 2.11l-44.984 67.89-24.996-23.734a7.503 7.503 0 0 0-10.606.277 7.499 7.499 0 0 0 .278 10.602c-.004 0 31.449 29.863 31.476 29.887zm0 0" fill="#000000" opacity="1" data-original="#000000" class=""></path><path d="M252.477 293.117a11.112 11.112 0 0 0 4.597 1.004h.063a10.975 10.975 0 0 0 4.652-1.062C375.836 238.82 395.164 121.797 398.367 87.223c.735-7.895-3.71-15.246-11.058-18.293-22.704-9.426-38.137-30.504-40.278-55.008C346.371 6.379 339.926.5 332.332.5h-.09l-153.648.902c-7.746.043-14.04 5.93-14.633 13.692-1.89 24.511-17.098 45.742-39.688 55.406-7.273 3.11-11.609 10.5-10.78 18.39 3.609 34.536 24.308 151.329 138.984 204.227zM130.172 84.29c27.7-11.844 46.36-37.848 48.73-67.89L332.11 15.5c2.723 29.977 21.649 55.742 49.45 67.281 1.242.52 1.996 1.746 1.875 3.059-3.008 32.402-21.004 141.656-126.387 192.855-105.988-49.953-125.25-158.996-128.64-191.363a2.954 2.954 0 0 1 1.765-3.043zm0 0" fill="#000000" opacity="1" data-original="#000000" class=""></path><path d="M148.898 125.867c.907 3.336 5.137 6.39 9.207 5.27 3.993-1.102 6.356-5.207 5.27-9.203a247.3 247.3 0 0 1-4.777-21.246 105.478 105.478 0 0 0 42.914-56.239l108.312-.636a105.47 105.47 0 0 0 43.57 55.73 244.88 244.88 0 0 1-4.53 21.316 7.501 7.501 0 1 0 14.523 3.762 260.438 260.438 0 0 0 5.195-25.031 11.468 11.468 0 0 0-5.406-11.633 90.517 90.517 0 0 1-39.805-51.023c-1.473-4.801-6-8.137-11.023-8.137h-.07l-113.4.664c-5.054.031-9.577 3.434-10.995 8.27-6.29 21.425-20.215 39.71-39.203 51.488-3.98 2.465-6.047 7.054-5.27 11.695a261.135 261.135 0 0 0 5.488 24.953zM348.227 148.105c-3.829-1.585-8.211.243-9.793 4.07-17.332 42.009-44.77 73.946-81.575 94.966-37.09-20.614-64.925-52.282-82.746-94.157a7.506 7.506 0 0 0-9.84-3.96 7.498 7.498 0 0 0-3.964 9.835c19.449 45.696 50.09 80.145 91.07 102.383a11.48 11.48 0 0 0 11.125-.062c40.672-22.692 70.883-57.442 89.797-103.285a7.491 7.491 0 0 0-4.074-9.79zM48.121 384.273c-14.629 0-26.535 11.903-26.535 26.536 0 14.632 11.906 26.535 26.535 26.535 14.633 0 26.54-11.903 26.54-26.535 0-14.633-11.903-26.536-26.54-26.536zm0 38.07c-6.36 0-11.535-5.171-11.535-11.534 0-6.36 5.176-11.536 11.535-11.536 6.363 0 11.54 5.176 11.54 11.536 0 6.363-5.177 11.535-11.54 11.535zm0 0" fill="#000000" opacity="1" data-original="#000000" class=""></path><path d="M506.621 310.848c-9.613-14.125-28.969-17.868-43.144-8.344l-98.047 65.621-20.93-1.176-.535-5.36a45.518 45.518 0 0 0-39.012-40.663 6.784 6.784 0 0 0-.394-.047L198.91 311.62c-3.574-.558-15.015-3.844-46.453-21.875-16.34-9.371-34.75-14.66-53.453-15.379v-19.62c0-9.849-8.008-17.856-17.856-17.856H17.855C8.012 236.89 0 244.902 0 254.746v193.246c0 9.844 8.012 17.856 17.855 17.856h63.293c9.844 0 17.856-8.012 17.856-17.856v-5.324l92.351 34.973c.204.078 7.704 2.882 21.493 1.582.039-.004 153.449-22.121 153.449-22.121.039-.004.074-.012.113-.02a75.447 75.447 0 0 0 35.758-16.02c.094-.078.184-.156.273-.234l99.106-89.137c11.68-10.37 13.863-27.93 5.074-40.843zm-15.07 29.66-99 89.043a60.437 60.437 0 0 1-28.453 12.71l-153.336 22.106a2.768 2.768 0 0 0-.133.02l-.074.011c-4.586.723-9.364.418-14.203-.906L99.004 426.63v-85.652a7.5 7.5 0 0 0-7.5-7.5 7.497 7.497 0 0 0-7.5 7.5v107.015a2.86 2.86 0 0 1-2.856 2.856H17.855A2.86 2.86 0 0 1 15 447.992V254.746a2.86 2.86 0 0 1 2.855-2.855h63.293a2.86 2.86 0 0 1 2.856 2.855v52.352a7.5 7.5 0 0 0 7.5 7.5 7.5 7.5 0 0 0 7.5-7.5v-17.715c16.09.71 31.918 5.304 45.988 13.379 37.918 21.746 48.508 23.246 51.988 23.738.133.02.262.031.395.047l105.66 9.258a30.56 30.56 0 0 1 26.004 27.27l.399 3.995-141.458 8.735a17.094 17.094 0 0 1-11.95-6.129 7.494 7.494 0 0 0-10.561-.957 7.494 7.494 0 0 0-.957 10.562c5.504 6.602 13.27 10.551 21.851 11.442 4.633.484 151.325-9.133 151.325-9.133l29.406 1.652a7.477 7.477 0 0 0 4.59-1.258l100.148-67.023c7.356-4.941 17.398-3.004 22.387 4.324 4.558 6.703 3.426 15.813-2.668 21.223zm0 0" fill="#000000" opacity="1" data-original="#000000" class=""></path></g></svg>