<svg xmlns="http://www.w3.org/2000/svg" version="1.1" xmlns:xlink="http://www.w3.org/1999/xlink" width="512" height="512" x="0" y="0" viewBox="0 0 682.667 682.667" style="enable-background:new 0 0 512 512" xml:space="preserve" class=""><g><defs><clipPath id="a" clipPathUnits="userSpaceOnUse"><path d="M0 512h512V0H0Z" fill="#000000" opacity="1" data-original="#000000"></path></clipPath></defs><path d="M0 0h65.441" style="stroke-width:15;stroke-linecap:round;stroke-linejoin:round;stroke-miterlimit:10;stroke-dasharray:none;stroke-opacity:1" transform="matrix(1.33333 0 0 -1.33333 540.637 59.67)" fill="none" stroke="#000000" stroke-width="15" stroke-linecap="round" stroke-linejoin="round" stroke-miterlimit="10" stroke-dasharray="none" stroke-opacity="" data-original="#000000"></path><path d="M0 0h7.977" style="stroke-width:15;stroke-linecap:round;stroke-linejoin:round;stroke-miterlimit:10;stroke-dasharray:none;stroke-opacity:1" transform="matrix(1.33333 0 0 -1.33333 491.088 59.67)" fill="none" stroke="#000000" stroke-width="15" stroke-linecap="round" stroke-linejoin="round" stroke-miterlimit="10" stroke-dasharray="none" stroke-opacity="" data-original="#000000"></path><path d="M0 0h102.604" style="stroke-width:15;stroke-linecap:round;stroke-linejoin:round;stroke-miterlimit:10;stroke-dasharray:none;stroke-opacity:1" transform="matrix(1.33333 0 0 -1.33333 491.088 106.645)" fill="none" stroke="#000000" stroke-width="15" stroke-linecap="round" stroke-linejoin="round" stroke-miterlimit="10" stroke-dasharray="none" stroke-opacity="" data-original="#000000"></path><g clip-path="url(#a)" transform="matrix(1.33333 0 0 -1.33333 0 682.667)"><path d="M0 0v-30.687c0-12.675-10.275-22.95-22.951-22.95h-18.918" style="stroke-width:15;stroke-linecap:round;stroke-linejoin:round;stroke-miterlimit:10;stroke-dasharray:none;stroke-opacity:1" transform="translate(315.666 331.334)" fill="none" stroke="#000000" stroke-width="15" stroke-linecap="round" stroke-linejoin="round" stroke-miterlimit="10" stroke-dasharray="none" stroke-opacity="" data-original="#000000"></path><path d="M0 0h-354.19c-8.907 0-16.127-7.22-16.127-16.127 0-8.906 7.22-16.126 16.127-16.126H0c8.907 0 16.127 7.22 16.127 16.126C16.127-7.22 8.907 0 0 0Z" style="stroke-width:15;stroke-linecap:round;stroke-linejoin:round;stroke-miterlimit:10;stroke-dasharray:none;stroke-opacity:1" transform="translate(377.817 40.066)" fill="none" stroke="#000000" stroke-width="15" stroke-linecap="round" stroke-linejoin="round" stroke-miterlimit="10" stroke-dasharray="none" stroke-opacity="" data-original="#000000"></path><path d="M0 0c0 13.216 4.952 25.922 13.794 35.744l.198.221c7.231 8.09 11.628 18.766 11.628 30.471 0 17.057-9.337 31.933-23.179 39.797-2.626 1.493-5.887-.384-5.887-3.404V68.798c0-5.704-4.624-10.328-10.329-10.328h-12.696c-5.704 0-10.329 4.624-10.329 10.328v34.031c0 3.02-3.262 4.897-5.888 3.404-13.841-7.864-23.178-22.74-23.178-39.797 0-11.705 4.397-22.381 11.628-30.471l.198-.221C-45.198 25.922-40.246 13.216-40.246 0" style="stroke-width:15;stroke-linecap:round;stroke-linejoin:round;stroke-miterlimit:10;stroke-dasharray:none;stroke-opacity:1" transform="translate(220.845 40.066)" fill="none" stroke="#000000" stroke-width="15" stroke-linecap="round" stroke-linejoin="round" stroke-miterlimit="10" stroke-dasharray="none" stroke-opacity="" data-original="#000000"></path><path d="m0 0 1.588-29.267" style="stroke-width:15;stroke-linecap:round;stroke-linejoin:round;stroke-miterlimit:10;stroke-dasharray:none;stroke-opacity:1" transform="translate(46.165 69.333)" fill="none" stroke="#000000" stroke-width="15" stroke-linecap="round" stroke-linejoin="round" stroke-miterlimit="10" stroke-dasharray="none" stroke-opacity="" data-original="#000000"></path><path d="m0 0 7.433 136.942c.715 13.186-9.783 24.27-22.989 24.27h-274.827c-13.205 0-23.704-11.084-22.988-24.27l3.954-72.866" style="stroke-width:15;stroke-linecap:round;stroke-linejoin:round;stroke-miterlimit:10;stroke-dasharray:none;stroke-opacity:1" transform="translate(353.691 40.066)" fill="none" stroke="#000000" stroke-width="15" stroke-linecap="round" stroke-linejoin="round" stroke-miterlimit="10" stroke-dasharray="none" stroke-opacity="" data-original="#000000"></path><path d="M0 0v31.417c0 30.26-10.514 58.433-28.362 80.688" style="stroke-width:15;stroke-linecap:round;stroke-linejoin:round;stroke-miterlimit:10;stroke-dasharray:none;stroke-opacity:1" transform="translate(387.943 36.482)" fill="none" stroke="#000000" stroke-width="15" stroke-linecap="round" stroke-linejoin="round" stroke-miterlimit="10" stroke-dasharray="none" stroke-opacity="" data-original="#000000"></path><path d="M0 0c-17.848-22.255-28.362-50.428-28.362-80.688v-31.417" style="stroke-width:15;stroke-linecap:round;stroke-linejoin:round;stroke-miterlimit:10;stroke-dasharray:none;stroke-opacity:1" transform="translate(41.863 148.588)" fill="none" stroke="#000000" stroke-width="15" stroke-linecap="round" stroke-linejoin="round" stroke-miterlimit="10" stroke-dasharray="none" stroke-opacity="" data-original="#000000"></path><path d="M0 0h-.841A8.428 8.428 0 0 0-9.27 8.428c0 13.783-11.172 24.956-24.955 24.956h-79.429c-35.349 0-64.004-28.655-64.004-64.004v-42.297a14.6 14.6 0 0 1 9.799-13.789l15.765-5.489c5.511-1.919 11.266 2.178 11.257 8.013l-.035 29.826c-.06 14.505 11.507 26.314 25.837 26.376l.312.001a41.45 41.45 0 0 0 12.869-1.994c7.342-2.359 14.95-3.789 22.662-3.756h5.681c7.712-.033 15.32 1.397 22.662 3.756a41.45 41.45 0 0 0 12.869 1.994l.312-.001c14.33-.062 25.897-11.871 25.837-26.376l-.029-29.828c-.008-5.835 5.747-9.93 11.256-8.011l15.761 5.489a14.6 14.6 0 0 1 9.798 13.788v47.962C24.955-11.173 13.782 0 0 0Z" style="stroke-width:15;stroke-linecap:round;stroke-linejoin:round;stroke-miterlimit:10;stroke-dasharray:none;stroke-opacity:1" transform="translate(277.074 442.673)" fill="none" stroke="#000000" stroke-width="15" stroke-linecap="round" stroke-linejoin="round" stroke-miterlimit="10" stroke-dasharray="none" stroke-opacity="" data-original="#000000"></path><path d="M0 0h.14c.552-21.754 9.672-42.657 26.049-56.809C39.375-68.203 57.883-78.118 82.278-78.29c24.392.38 42.818 10.453 55.907 21.959 15.937 14.008 24.825 34.443 25.522 55.738" style="stroke-width:15;stroke-linecap:round;stroke-linejoin:round;stroke-miterlimit:10;stroke-dasharray:none;stroke-opacity:1" transform="translate(118.87 312.475)" fill="none" stroke="#000000" stroke-width="15" stroke-linecap="round" stroke-linejoin="round" stroke-miterlimit="10" stroke-dasharray="none" stroke-opacity="" data-original="#000000"></path><path d="M0 0c-7.757-1.428-13.638-8.212-13.638-16.382v-28.486c0-9.208 7.464-16.672 16.672-16.672h16.42v41.104" style="stroke-width:15;stroke-linecap:round;stroke-linejoin:round;stroke-miterlimit:10;stroke-dasharray:none;stroke-opacity:1" transform="translate(99.415 373.042)" fill="none" stroke="#000000" stroke-width="15" stroke-linecap="round" stroke-linejoin="round" stroke-miterlimit="10" stroke-dasharray="none" stroke-opacity="" data-original="#000000"></path><path d="M0 0v-41.102h16.419c9.208 0 16.672 7.464 16.672 16.671V4.055c0 8.17-5.881 14.955-13.638 16.382" style="stroke-width:15;stroke-linecap:round;stroke-linejoin:round;stroke-miterlimit:10;stroke-dasharray:none;stroke-opacity:1" transform="translate(282.576 352.604)" fill="none" stroke="#000000" stroke-width="15" stroke-linecap="round" stroke-linejoin="round" stroke-miterlimit="10" stroke-dasharray="none" stroke-opacity="" data-original="#000000"></path><path d="M0 0h-18.822c-7.181 0-13.003 5.821-13.003 13.002 0 7.182 5.822 13.003 13.003 13.003H0c7.181 0 13.002-5.821 13.002-13.003C13.002 5.821 7.181 0 0 0Z" style="stroke-width:15;stroke-linecap:round;stroke-linejoin:round;stroke-miterlimit:10;stroke-dasharray:none;stroke-opacity:1" transform="translate(257.323 265.924)" fill="none" stroke="#000000" stroke-width="15" stroke-linecap="round" stroke-linejoin="round" stroke-miterlimit="10" stroke-dasharray="none" stroke-opacity="" data-original="#000000"></path><path d="M0 0c-6.891 3.736-11.441 11.002-11.441 19.185v25.141" style="stroke-width:15;stroke-linecap:round;stroke-linejoin:round;stroke-miterlimit:10;stroke-dasharray:none;stroke-opacity:1" transform="translate(253.911 201.278)" fill="none" stroke="#000000" stroke-width="15" stroke-linecap="round" stroke-linejoin="round" stroke-miterlimit="10" stroke-dasharray="none" stroke-opacity="" data-original="#000000"></path><path d="M0 0v-25.219c0-8.323-4.683-15.498-11.464-19.185" style="stroke-width:15;stroke-linecap:round;stroke-linejoin:round;stroke-miterlimit:10;stroke-dasharray:none;stroke-opacity:1" transform="translate(158.975 245.682)" fill="none" stroke="#000000" stroke-width="15" stroke-linecap="round" stroke-linejoin="round" stroke-miterlimit="10" stroke-dasharray="none" stroke-opacity="" data-original="#000000"></path><path d="M0 0v14.516c0 12.046-9.765 21.811-21.812 21.811h-126.141c-12.047 0-21.812-9.765-21.812-21.811v-63.088c0-12.046 9.765-21.811 21.812-21.811 7.035 0 12.738-5.703 12.738-12.738v-39.015c0-4.953 6.523-6.759 9.07-2.511l28.831 48.077a12.738 12.738 0 0 0 10.924 6.187h64.578C-9.765-70.383 0-60.618 0-48.572v13.508" style="stroke-width:15;stroke-linecap:round;stroke-linejoin:round;stroke-miterlimit:10;stroke-dasharray:none;stroke-opacity:1" transform="translate(504.5 467.86)" fill="none" stroke="#000000" stroke-width="15" stroke-linecap="round" stroke-linejoin="round" stroke-miterlimit="10" stroke-dasharray="none" stroke-opacity="" data-original="#000000"></path></g></g></svg>